<svg width="213" height="48" viewBox="0 0 213 48" fill="none" xmlns="http://www.w3.org/2000/svg">
<path d="M201.072 0.0321045H196.469L205.938 16.096L201.203 24.4867H206.777C207.611 24.4867 208.371 24.0751 208.738 23.4254L212.074 17.5123C212.577 16.6207 212.567 15.5755 212.046 14.6915L204.467 1.83434C203.815 0.728047 202.504 0.0321045 201.072 0.0321045Z" fill="url(#paint0_linear_301_173)"/>
<path d="M204.467 1.83435C208.241 8.23788 208.536 11.4898 205.938 16.096L201.203 24.4867H206.777C207.611 24.4867 208.371 24.0751 208.738 23.4254L212.074 17.5123C212.577 16.6207 212.567 15.5755 212.046 14.6915L204.467 1.83435Z" fill="url(#paint1_linear_301_173)"/>
<path d="M204.467 1.83435C208.241 8.23788 208.536 11.4898 205.938 16.096L201.203 24.4867H206.777C207.611 24.4867 208.371 24.0751 208.738 23.4254L212.074 17.5123C212.577 16.6207 212.567 15.5755 212.046 14.6915L204.467 1.83435Z" fill="url(#paint2_linear_301_173)"/>
<path d="M198.571 34.0031H203.175L193.706 17.9395L198.441 9.54846H192.866C192.033 9.54846 191.272 9.96034 190.906 10.6098L187.569 16.5229C187.066 17.4145 187.077 18.4599 187.598 19.3436L195.177 32.2008C195.828 33.3071 197.14 34.0031 198.571 34.0031Z" fill="url(#paint3_linear_301_173)"/>
<path d="M198.571 34.0031H203.175L193.706 17.9395L198.441 9.54846H192.866C192.033 9.54846 191.272 9.96034 190.906 10.6098L187.569 16.5229C187.066 17.4145 187.077 18.4599 187.598 19.3436L195.177 32.2008C195.828 33.3071 197.14 34.0031 198.571 34.0031Z" fill="url(#paint4_linear_301_173)"/>
<path d="M195.177 32.2008C191.402 25.7976 191.107 22.5454 193.706 17.9395L198.441 9.54846H192.866C192.033 9.54846 191.272 9.96034 190.906 10.6098L187.569 16.5229C187.066 17.4145 187.077 18.4599 187.598 19.3436L195.177 32.2008Z" fill="url(#paint5_linear_301_173)"/>
<path d="M195.177 32.2008C191.402 25.7976 191.107 22.5454 193.706 17.9395L198.441 9.54846H192.866C192.033 9.54846 191.272 9.96034 190.906 10.6098L187.569 16.5229C187.066 17.4145 187.077 18.4599 187.598 19.3436L195.177 32.2008Z" fill="url(#paint6_linear_301_173)"/>
<path fill-rule="evenodd" clip-rule="evenodd" d="M155.071 29.7283C159.244 29.1378 162.378 32.2781 162.403 35.7582C162.418 37.8845 162.446 39.5045 161.225 41.041C160.373 42.1128 158.908 43.2499 156.839 43.5221C152.543 44.0868 149.426 41.0028 149.365 37.4821C149.326 35.2478 149.241 33.8235 150.542 32.2023C151.484 31.0281 152.721 30.0607 155.071 29.7283ZM162.4 18.2761C162.4 20.5722 162.4 22.8682 162.4 25.1643C162.4 29.4286 162.797 27.2818 164.187 30.479L163.011 30.4933C162.297 28.6498 160.387 26.9821 158.578 26.1871C156.294 25.1839 153.073 25.1068 150.609 25.9572C145.263 27.8022 144.366 32.4518 144.368 36.9063C144.376 51.0612 160.301 49.8874 163.17 42.4681L164.194 42.4947C163.248 44.6207 162.056 44.8112 162.473 46.726L167.417 46.6991C167.697 44.9672 167.466 41.54 167.466 39.6271C167.466 36.0875 167.224 19.4041 167.574 18.285L162.4 18.2761Z" fill="white"/>
<path fill-rule="evenodd" clip-rule="evenodd" d="M72.1525 32.4255C72.6476 30.3817 74.7608 29.3562 74.7439 26.455C74.7305 24.1904 75.0149 20.3218 74.7009 18.2144L69.6763 18.2492L69.6788 46.6523L74.74 46.5853C74.7682 42.8952 74.6541 39.1532 74.7429 35.4726C74.82 32.2962 77.5126 29.7451 81.2464 29.8234C84.901 29.9001 87.4 32.409 87.4448 35.6117C87.4962 39.2819 87.3863 42.9695 87.4515 46.6391H92.5022L92.5071 35.7606C92.5071 24.4736 81.0012 23.7265 77.0266 27.2329C76.1556 28.0013 75.6083 28.4954 74.8979 29.6812C74.3838 30.5392 73.8809 31.533 73.2664 32.4212L72.1525 32.4255Z" fill="white"/>
<path fill-rule="evenodd" clip-rule="evenodd" d="M25.9525 36.1024L24.9919 36.1318C24.3717 29.0433 36.309 26.5351 37.5166 34.9151H26.38L25.9525 36.1024ZM37.7721 40.7967C36.7227 42.7007 33.0865 44.1608 29.7984 43.2465C27.4501 42.5937 24.8401 40.4579 24.9733 37.8028H42.5729C42.5729 34.4421 42.4845 31.817 40.5806 29.4479C35.1461 22.6851 22.2039 24.6601 20.115 33.3272C19.4638 36.0281 19.7534 39.9274 21.0794 42.0776C23.7864 46.4679 30.7262 49.0263 36.488 47.1121C38.8698 46.3208 41.7343 44.2715 42.5278 42.48L37.7721 40.7967Z" fill="white"/>
<path fill-rule="evenodd" clip-rule="evenodd" d="M175.622 36.1024L174.662 36.1318C174.374 32.8426 176.904 30.219 180.028 29.7594C182.077 29.4583 183.956 29.9851 185.127 30.885C186.343 31.8198 186.915 33.0315 187.187 34.9151H176.05L175.622 36.1024ZM192.202 42.4714L187.457 40.7649C186.412 42.6646 182.879 44.1238 179.594 43.2802C177.163 42.6561 174.509 40.4729 174.599 37.8028H192.238C192.243 34.4188 192.196 31.9622 190.317 29.5335C185.088 22.774 172.031 24.5093 169.811 33.215C169.14 35.8492 169.402 39.8368 170.692 41.9846C173.385 46.4666 180.388 48.993 186.037 47.1516C188.489 46.3523 191.387 44.31 192.202 42.4714Z" fill="white"/>
<path fill-rule="evenodd" clip-rule="evenodd" d="M113.06 38.3254C112.727 40.601 111.977 41.8384 110.148 42.6659C106.417 44.3553 101.299 43.0031 100.077 39.0308C99.6224 37.5552 99.8306 34.1825 99.8306 32.4674C99.8306 27.5557 99.2193 23.9503 103.535 22.027C105.482 21.1595 108.088 21.2803 109.97 22.1429C110.809 22.5273 111.561 23.1257 112.057 23.7681C112.571 24.4338 112.626 25.5324 113.1 26.2232L117.608 24.6044C116.922 19.7404 109.624 15.3299 102.457 17.6578C99.4465 18.6357 97.3531 20.5688 96.0602 22.8523C94.4692 25.6627 94.8857 29.1665 94.8857 32.4674C94.8857 35.8801 94.4681 39.3146 96.1694 42.132C99.4254 47.5237 106.476 49.3424 112.517 46.2936C114.476 45.3047 117.364 42.8851 117.712 40.1561L113.06 38.3254Z" fill="white"/>
<path fill-rule="evenodd" clip-rule="evenodd" d="M59.9816 36.3789C59.9887 39.3712 59.36 40.7004 57.4223 42.0669C52.7254 45.3797 48.8214 42.9194 50.4997 39.9207C51.6563 37.8546 54.9993 37.7057 56.8046 37.3889C58.3948 37.1097 58.8766 36.7467 59.9816 36.3789ZM50.8993 33.8272C51.1858 30.8887 51.3944 29.3363 55.1047 29.325C58.3963 29.3152 59.9333 30.2145 59.9954 33.1894C60.0236 34.5403 59.0024 34.9243 57.5491 35.1408C56.1921 35.3432 54.5997 35.2111 53.1652 35.3643C42.3481 36.5183 43.0257 46.4334 50.1604 47.6427C55.6258 48.5692 59.1211 45.4445 61.2375 41.4645L62.4719 41.5077C61.5406 43.3891 59.496 44.9128 60.6163 45.8717C62.0378 47.0883 65.0443 46.7755 67.3443 46.7755L67.3471 42.5772L65.1017 42.5537C64.1845 37.0268 67.648 28.777 59.7279 26.0242C53.5394 23.8733 45.0903 26.9121 45.9241 33.8599L50.8993 33.8272Z" fill="white"/>
<path fill-rule="evenodd" clip-rule="evenodd" d="M129.851 30.0023C133.949 29.2106 137.213 32.1085 137.334 35.3307C137.41 37.3919 137.517 39.019 136.432 40.6634C133.47 45.1522 125.046 43.7967 124.773 37.9124C124.605 34.2908 125.09 30.9221 129.851 30.0023ZM119.79 39.0541C121.627 51.368 144.534 51.3747 142.319 34.1975C141.633 28.8728 135.612 24.1874 128.422 25.7037C121.258 27.2142 118.898 33.0747 119.79 39.0541Z" fill="white"/>
<path fill-rule="evenodd" clip-rule="evenodd" d="M15.7201 46.6391C15.761 43.4967 15.725 40.3368 15.725 37.1929C15.725 32.4488 15.1936 34.2694 18.2227 29.9078L26.5103 18.2798L20.3264 18.2621C19.7968 19.4127 14.393 26.4651 13.8454 27.6071L15.9798 30.689L14.7672 30.7227C13.7823 29.1195 6.07082 18.3064 5.82416 18.2379H0C0.273448 18.9085 3.44558 23.2636 4.12251 24.2063L10.2617 32.9184C10.8357 33.8061 10.5457 36.086 10.5457 37.336C10.5457 40.4286 10.4978 43.5499 10.527 46.6391H15.7201Z" fill="white"/>
<defs>
<linearGradient id="paint0_linear_301_173" x1="196.468" y1="12.2597" x2="212.444" y2="12.2597" gradientUnits="userSpaceOnUse">
<stop stop-color="#890AFF"/>
<stop offset="1" stop-color="#2A0056"/>
</linearGradient>
<linearGradient id="paint1_linear_301_173" x1="206.823" y1="24.487" x2="206.823" y2="1.83405" gradientUnits="userSpaceOnUse">
<stop stop-color="#A552FF"/>
<stop offset="1" stop-color="#AE38FF"/>
</linearGradient>
<linearGradient id="paint2_linear_301_173" x1="205.418" y1="12.7655" x2="220.552" y2="18.413" gradientUnits="userSpaceOnUse">
<stop stop-color="#AF52FF"/>
<stop offset="0.4" stop-color="#AF45FF"/>
<stop offset="1" stop-color="#AE38FF"/>
</linearGradient>
<linearGradient id="paint3_linear_301_173" x1="187.2" y1="21.7758" x2="203.175" y2="21.7758" gradientUnits="userSpaceOnUse">
<stop stop-color="#3D0056"/>
<stop offset="1" stop-color="#FF0AA1"/>
</linearGradient>
<linearGradient id="paint4_linear_301_173" x1="192.244" y1="18.2655" x2="200.755" y2="31.744" gradientUnits="userSpaceOnUse">
<stop stop-color="#3D0056"/>
<stop offset="1" stop-color="#E23FC4"/>
</linearGradient>
<linearGradient id="paint5_linear_301_173" x1="192.82" y1="32.2011" x2="192.82" y2="9.54846" gradientUnits="userSpaceOnUse">
<stop stop-color="#DF38FF"/>
<stop offset="1" stop-color="#FF38FF"/>
</linearGradient>
<linearGradient id="paint6_linear_301_173" x1="178.688" y1="15.2591" x2="205.321" y2="29.3142" gradientUnits="userSpaceOnUse">
<stop stop-color="#9E0082"/>
<stop offset="1" stop-color="#FF38FF"/>
</linearGradient>
</defs>
</svg>
