<svg width="158" height="20" viewBox="0 0 158 20" fill="none" xmlns="http://www.w3.org/2000/svg">
<path d="M44.4375 11.8531C43.5117 11.8531 42.7094 11.1125 42.7094 10.125C42.7094 9.19922 43.45 8.39687 44.4375 8.39687C45.3633 8.39687 46.1656 9.1375 46.1656 10.125C46.1656 11.0508 45.3633 11.8531 44.4375 11.8531Z" fill="#C919B9"/>
<path fill-rule="evenodd" clip-rule="evenodd" d="M46.5359 5.92812H42.3391C41.8453 5.98984 41.5984 6.05156 41.4133 6.11328C41.1664 6.175 40.9813 6.29844 40.7961 6.48359C40.6496 6.6301 40.5804 6.77662 40.4967 6.95371C40.4746 7.00038 40.4515 7.0493 40.4258 7.10078C40.4162 7.12942 40.4052 7.15954 40.3934 7.19183C40.3288 7.36823 40.2406 7.60919 40.2406 8.02656V12.2234C40.3023 12.7172 40.3641 12.9641 40.4258 13.1492C40.4875 13.3961 40.6109 13.5812 40.7961 13.7664C40.9426 13.9129 41.0891 13.9821 41.2662 14.0658C41.3129 14.0879 41.3618 14.111 41.4133 14.1367C41.4419 14.1463 41.472 14.1573 41.5043 14.1691C41.6807 14.2337 41.9217 14.3219 42.3391 14.3219H46.5359C47.0297 14.2602 47.2766 14.1984 47.4617 14.1367C47.7086 14.075 47.8938 13.9516 48.0789 13.7664C48.2254 13.6199 48.2946 13.4734 48.3783 13.2963C48.4004 13.2496 48.4235 13.2007 48.4492 13.1492C48.4588 13.1206 48.4698 13.0905 48.4816 13.0582C48.5462 12.8818 48.6344 12.6408 48.6344 12.2234V8.02656C48.5727 7.53281 48.5109 7.28594 48.4492 7.10078C48.3875 6.8539 48.2641 6.66875 48.0789 6.48359C47.9324 6.33708 47.7859 6.26786 47.6088 6.18419C47.5622 6.16215 47.5132 6.139 47.4617 6.11328C47.4331 6.10373 47.403 6.09271 47.3707 6.08089C47.1943 6.01632 46.9533 5.92812 46.5359 5.92812ZM44.4375 7.47109C42.9563 7.47109 41.7836 8.64375 41.7836 10.125C41.7836 11.6062 42.9563 12.7789 44.4375 12.7789C45.9187 12.7789 47.0914 11.6062 47.0914 10.125C47.0914 8.64375 45.9187 7.47109 44.4375 7.47109ZM47.7703 7.40937C47.7703 7.75024 47.494 8.02656 47.1531 8.02656C46.8123 8.02656 46.5359 7.75024 46.5359 7.40937C46.5359 7.06851 46.8123 6.79219 47.1531 6.79219C47.494 6.79219 47.7703 7.06851 47.7703 7.40937Z" fill="#C919B9"/>
<path fill-rule="evenodd" clip-rule="evenodd" d="M34.5625 3.33594C34.5625 1.63162 35.9441 0.25 37.6484 0.25H51.2266C52.9309 0.25 54.3125 1.63162 54.3125 3.33594V16.9141C54.3125 18.6184 52.9309 20 51.2266 20H37.6484C35.9441 20 34.5625 18.6184 34.5625 16.9141V3.33594ZM42.3391 5.00234H46.5359C47.0914 5.06406 47.4617 5.12578 47.7703 5.24922C48.1406 5.43437 48.3875 5.55781 48.6961 5.8664C49.0047 6.175 49.1898 6.48359 49.3133 6.79219C49.4367 7.10078 49.5602 7.47109 49.5602 8.02656V12.2234C49.4984 12.7789 49.4367 13.1492 49.3133 13.4578C49.1281 13.8281 49.0047 14.075 48.6961 14.3836C48.3875 14.6922 48.0789 14.8773 47.7703 15.0008C47.4617 15.1242 47.0914 15.2477 46.5359 15.2477H42.3391C41.7836 15.1859 41.4133 15.1242 41.1047 15.0008C40.7344 14.8156 40.4875 14.6922 40.1789 14.3836C39.8703 14.075 39.6852 13.7664 39.5617 13.4578C39.4383 13.1492 39.3148 12.7789 39.3148 12.2234V8.02656C39.3766 7.47109 39.4383 7.10078 39.5617 6.79219C39.7469 6.42187 39.8703 6.175 40.1789 5.8664C40.4875 5.55781 40.7961 5.37265 41.1047 5.24922C41.4133 5.12578 41.7836 5.00234 42.3391 5.00234Z" fill="#C919B9"/>
<path fill-rule="evenodd" clip-rule="evenodd" d="M76.9016 13.643C77.5188 14.0133 78.2594 14.1984 79 14.1984C81.2836 14.1984 83.0734 12.3469 83.0734 10.1867C83.0734 9.07578 82.7031 8.08828 81.9008 7.28594C81.0984 6.54531 80.1109 6.11328 79 6.11328C76.7781 6.11328 74.9266 7.96484 74.9266 10.1867C74.9266 10.9273 75.1117 11.668 75.5437 12.3469L75.6672 12.532L75.2352 14.0133L76.7781 13.5812L76.9016 13.643ZM80.3578 10.7422C80.4813 10.7422 81.0984 11.0508 81.2219 11.1125C81.2411 11.1221 81.2603 11.1302 81.2793 11.1382C81.3823 11.1817 81.4784 11.2223 81.5305 11.4828C81.5922 11.4828 81.5922 11.7297 81.4688 12.0383C81.407 12.2852 80.9133 12.5938 80.6664 12.5938C80.6246 12.5938 80.5845 12.5973 80.5417 12.6011C80.332 12.6196 80.0566 12.644 79.1851 12.2852C78.1035 11.8525 77.3537 10.8039 77.1431 10.5094C77.1133 10.4678 77.0944 10.4412 77.0867 10.4336C77.0762 10.4126 77.055 10.379 77.0269 10.3348C76.8904 10.1192 76.593 9.6496 76.593 9.1375C76.593 8.52031 76.9016 8.21172 77.025 8.08828C77.1484 7.96484 77.2719 7.96484 77.3336 7.96484H77.5805C77.6422 7.96484 77.7656 7.96484 77.8273 8.15C77.9508 8.39687 78.1977 9.01406 78.1977 9.07578C78.1977 9.09636 78.2045 9.11693 78.2114 9.1375C78.2251 9.17865 78.2388 9.21979 78.1977 9.26094C78.1668 9.29179 78.1514 9.32265 78.1359 9.35352C78.1205 9.38438 78.1051 9.41524 78.0742 9.44609L77.8891 9.63125C77.8274 9.69297 77.7656 9.75469 77.8273 9.87812C77.8891 10.0016 78.1359 10.4336 78.5063 10.7422C78.9229 11.1068 79.2517 11.2516 79.4184 11.325C79.4492 11.3386 79.4745 11.3497 79.4937 11.3594C79.6172 11.3594 79.6789 11.3594 79.7406 11.2977C79.7715 11.2359 79.8486 11.1434 79.9258 11.0508C80.0029 10.9582 80.0801 10.8656 80.1109 10.8039C80.1726 10.6805 80.2344 10.6805 80.3578 10.7422Z" fill="#C919B9"/>
<path fill-rule="evenodd" clip-rule="evenodd" d="M69.125 3.33594C69.125 1.63162 70.5066 0.25 72.2109 0.25H85.7891C87.4934 0.25 88.875 1.63162 88.875 3.33594V16.9141C88.875 18.6184 87.4934 20 85.7891 20H72.2109C70.5066 20 69.125 18.6184 69.125 16.9141V3.33594ZM79 5.1875C80.2961 5.1875 81.5305 5.68125 82.4563 6.60703C83.382 7.53281 83.9375 8.76719 83.9375 10.0633C83.9375 12.7789 81.7156 15.0008 79 15.0008C78.1977 15.0008 77.3953 14.7539 76.6547 14.3836L74.0625 15.0625L74.7414 12.5938C74.3094 11.8531 74.0625 10.9891 74.0625 10.125C74.0625 7.40937 76.2844 5.1875 79 5.1875Z" fill="#C919B9"/>
<path fill-rule="evenodd" clip-rule="evenodd" d="M149.201 11.8531C149.349 12.0408 149.527 12.2531 149.527 12.2531C150.618 12.2185 151.038 11.5026 151.038 11.5026C151.038 9.91269 150.327 8.624 150.327 8.624C149.616 8.09075 148.94 8.10556 148.94 8.10556L148.871 8.18456C149.71 8.44131 150.1 8.81162 150.1 8.81162C149.587 8.53019 149.083 8.39194 148.614 8.33763C148.258 8.29812 147.918 8.308 147.616 8.3475C147.591 8.3475 147.568 8.35126 147.544 8.3555L147.532 8.35737C147.36 8.37219 146.94 8.43637 146.412 8.66844C146.229 8.75238 146.12 8.81162 146.12 8.81162C146.12 8.81162 146.53 8.42156 147.419 8.16481L147.37 8.10556C147.37 8.10556 146.693 8.09075 145.982 8.624C145.982 8.624 145.271 9.91269 145.271 11.5026C145.271 11.5026 145.686 12.2185 146.777 12.2531C146.777 12.2531 146.96 12.0309 147.108 11.8433C146.481 11.6556 146.244 11.2606 146.244 11.2606C146.244 11.2606 146.293 11.2952 146.382 11.3446C146.387 11.3495 146.392 11.3544 146.402 11.3594C146.409 11.3643 146.417 11.368 146.424 11.3717C146.431 11.3754 146.439 11.3791 146.446 11.3841C146.57 11.4532 146.693 11.5075 146.807 11.5519C147.009 11.6309 147.251 11.7099 147.532 11.7643C147.903 11.8334 148.337 11.8581 148.811 11.7692C149.043 11.7297 149.28 11.6606 149.527 11.5569C149.7 11.4927 149.893 11.3989 150.095 11.2656C150.095 11.2656 149.848 11.6704 149.201 11.8531ZM146.728 10.4953C146.728 10.1941 146.95 9.94725 147.231 9.94725C147.513 9.94725 147.74 10.1941 147.735 10.4953C147.735 10.7965 147.513 11.0434 147.231 11.0434C146.955 11.0434 146.728 10.7965 146.728 10.4953ZM148.53 10.4953C148.53 10.1941 148.752 9.94725 149.034 9.94725C149.315 9.94725 149.537 10.1941 149.537 10.4953C149.537 10.7965 149.315 11.0434 149.034 11.0434C148.757 11.0434 148.53 10.7965 148.53 10.4953Z" fill="#C919B9"/>
<path fill-rule="evenodd" clip-rule="evenodd" d="M154.914 0.25C156.618 0.25 158 1.63162 158 3.33594V16.9141C158 18.6184 156.618 20 154.914 20H141.336C139.632 20 138.25 18.6184 138.25 16.9141V3.33594C138.25 1.63162 139.632 0.25 141.336 0.25H154.914ZM144.817 5.80469H151.433C151.991 5.80469 152.445 6.25894 152.445 6.82181V15.6797L151.384 14.7416L150.786 14.1886L150.154 13.601L150.416 14.5144H144.817C144.259 14.5144 143.805 14.0602 143.805 13.4973V6.82181C143.805 6.25894 144.259 5.80469 144.817 5.80469Z" fill="#C919B9"/>
<path fill-rule="evenodd" clip-rule="evenodd" d="M0 3.33594C0 1.63162 1.38162 0.25 3.08594 0.25H16.6641C18.3684 0.25 19.75 1.63162 19.75 3.33594V16.9141C19.75 18.6184 18.3684 20 16.6641 20H3.08594C1.38162 20 0 18.6184 0 16.9141V3.33594ZM5.06094 8.4586V15.0625H7.15938V8.4586H5.06094ZM4.9375 6.36016C4.9375 7.03906 5.43125 7.53281 6.11016 7.53281C6.78906 7.53281 7.28281 7.03906 7.28281 6.36016C7.28281 5.68125 6.78906 5.1875 6.11016 5.1875C5.49297 5.1875 4.9375 5.68125 4.9375 6.36016ZM12.7141 15.0625H14.6891V10.9891C14.6891 8.95234 13.4547 8.27344 12.282 8.27344C11.2328 8.27344 10.4922 8.95234 10.307 9.38438V8.4586H8.33203V15.0625H10.4305V11.5445C10.4305 10.6188 11.0477 10.125 11.6648 10.125C12.282 10.125 12.7141 10.4336 12.7141 11.4828V15.0625Z" fill="#C919B9"/>
<path fill-rule="evenodd" clip-rule="evenodd" d="M103.688 3.33594C103.688 1.63162 105.069 0.25 106.773 0.25H120.352C122.056 0.25 123.438 1.63162 123.438 3.33594V16.9141C123.438 18.6184 122.056 20 120.352 20H106.773C105.069 20 103.688 18.6184 103.688 16.9141V3.33594ZM108.625 10.2284C108.625 7.51051 110.829 5.306 113.547 5.306C116.265 5.306 118.47 7.51051 118.5 10.2284C118.5 12.4027 117.111 14.2448 115.148 14.9092C114.906 14.9394 114.816 14.7884 114.816 14.6676V13.3087C114.816 12.8557 114.665 12.5537 114.484 12.4027C115.571 12.2819 116.718 11.8893 116.718 9.98681C116.718 9.44323 116.507 8.99025 116.205 8.65807C116.207 8.64858 116.211 8.63667 116.215 8.62245C116.261 8.45568 116.395 7.9717 116.144 7.35952C116.144 7.35952 115.722 7.23872 114.786 7.8729C114.393 7.7823 113.97 7.7219 113.547 7.7219C113.125 7.7219 112.702 7.7521 112.309 7.8729C111.373 7.23872 110.95 7.35952 110.95 7.35952C110.683 8.01194 110.853 8.51876 110.888 8.62257L110.89 8.62787C110.558 8.99025 110.377 9.41303 110.377 9.95661C110.377 11.8591 111.524 12.2819 112.611 12.4027C112.49 12.5235 112.339 12.7349 112.309 13.0671C112.037 13.1879 111.343 13.3993 110.89 12.6443C110.89 12.6443 110.618 12.1611 110.135 12.1309C110.135 12.1309 109.652 12.1309 110.105 12.4329C110.105 12.4329 110.437 12.5839 110.648 13.1577C110.648 13.1577 110.95 14.124 112.309 13.8221V14.6676C112.309 14.7884 112.219 14.9394 111.977 14.9092C110.044 14.2448 108.625 12.4027 108.625 10.2284Z" fill="#C919B9"/>
</svg>
